<svg width="65" height="62" viewBox="0 0 65 62" fill="none" xmlns="http://www.w3.org/2000/svg">
<rect x="0.5" y="0.5" width="64" height="61" rx="17.5" fill="#C41C27" stroke="#C41C27"/>
<path d="M39.75 39H26.25C25.4199 39.0001 24.6212 38.6824 24.0178 38.1123C23.4144 37.5422 23.052 36.7628 23.005 35.934L23 35.75V25.25C22.9999 24.6799 23.2163 24.131 23.6054 23.7142C23.9944 23.2975 24.5272 23.044 25.096 23.005L25.25 23H37.75C38.3201 22.9999 38.869 23.2163 39.2858 23.6054C39.7025 23.9944 39.956 24.5272 39.995 25.096L40 25.25V26H40.75C41.3201 25.9999 41.869 26.2163 42.2858 26.6054C42.7025 26.9944 42.956 27.5272 42.995 28.096L43 28.25V35.75C43.0001 36.5801 42.6824 37.3788 42.1123 37.9822C41.5422 38.5856 40.7628 38.948 39.934 38.995L39.75 39H26.25H39.75ZM26.25 37.5H39.75C40.1893 37.5 40.6126 37.3347 40.9357 37.037C41.2588 36.7392 41.4581 36.3309 41.494 35.893L41.5 35.75V28.25C41.5 28.0688 41.4344 27.8937 41.3152 27.7571C41.1961 27.6205 41.0316 27.5316 40.852 27.507L40.75 27.5H40V35.25C40 35.4312 39.9344 35.6063 39.8152 35.7429C39.6961 35.8795 39.5316 35.9684 39.352 35.993L39.25 36C39.0688 36 38.8937 35.9344 38.7571 35.8152C38.6205 35.6961 38.5316 35.5316 38.507 35.352L38.5 35.25V25.25C38.5 25.0688 38.4344 24.8937 38.3152 24.7571C38.1961 24.6205 38.0316 24.5316 37.852 24.507L37.75 24.5H25.25C25.0688 24.5 24.8937 24.5656 24.7571 24.6848C24.6205 24.8039 24.5316 24.9684 24.507 25.148L24.5 25.25V35.75C24.5 36.1892 24.6652 36.6123 24.9627 36.9354C25.2602 37.2585 25.6683 37.4579 26.106 37.494L26.25 37.5H39.75H26.25ZM33.246 33.5H36.252C36.442 33.5001 36.6249 33.5722 36.7638 33.702C36.9026 33.8317 36.9871 34.0093 37 34.1989C37.013 34.3885 36.9535 34.5759 36.8336 34.7233C36.7137 34.8707 36.5423 34.9671 36.354 34.993L36.252 35H33.246C33.056 34.9999 32.8731 34.9278 32.7342 34.798C32.5954 34.6683 32.5109 34.4907 32.498 34.3011C32.485 34.1115 32.5445 33.9241 32.6644 33.7767C32.7843 33.6293 32.9558 33.5329 33.144 33.507L33.246 33.5H36.252H33.246ZM30.243 30.005C30.4419 30.005 30.6327 30.084 30.7733 30.2247C30.914 30.3653 30.993 30.5561 30.993 30.755V34.25C30.993 34.4489 30.914 34.6397 30.7733 34.7803C30.6327 34.921 30.4419 35 30.243 35H26.748C26.5491 35 26.3583 34.921 26.2177 34.7803C26.077 34.6397 25.998 34.4489 25.998 34.25V30.755C25.998 30.5561 26.077 30.3653 26.2177 30.2247C26.3583 30.084 26.5491 30.005 26.748 30.005H30.243ZM29.493 31.505H27.498V33.5H29.493V31.505ZM33.246 30.005H36.252C36.442 30.0051 36.6249 30.0772 36.7638 30.207C36.9026 30.3367 36.9871 30.5143 37 30.7039C37.013 30.8935 36.9535 31.0809 36.8336 31.2283C36.7137 31.3757 36.5423 31.4721 36.354 31.498L36.252 31.505H33.246C33.0546 31.5069 32.8697 31.4357 32.7292 31.3057C32.5887 31.1758 32.5032 30.9971 32.4901 30.8061C32.4771 30.6152 32.5375 30.4265 32.6591 30.2787C32.7807 30.1308 32.9541 30.0351 33.144 30.011L33.246 30.005H36.252H33.246ZM26.748 26.502H36.252C36.4434 26.5001 36.6283 26.5713 36.7688 26.7013C36.9093 26.8312 36.9948 27.0099 37.0079 27.2009C37.0209 27.3918 36.9605 27.5805 36.8389 27.7283C36.7173 27.8762 36.5439 27.9719 36.354 27.996L36.252 28.002H26.748C26.558 28.0019 26.3751 27.9298 26.2362 27.8C26.0974 27.6703 26.0129 27.4927 26 27.3031C25.987 27.1135 26.0465 26.9261 26.1664 26.7787C26.2863 26.6313 26.4577 26.5349 26.646 26.509L26.748 26.502H36.252H26.748V26.502Z" fill="white"/>
</svg>
