<svg width="17" height="17" viewBox="0 0 17 17" fill="none" xmlns="http://www.w3.org/2000/svg">
<g clip-path="url(#clip0)">
<path d="M0.5 9.20832C0.5 8.50839 1.07089 7.9375 1.77082 7.9375H4.45832V16.012C4.28776 16.0979 4.09722 16.1458 3.89582 16.1458H1.77082C1.07089 16.1458 0.5 15.5749 0.5 14.875V9.20832Z" stroke="black"/>
<path d="M15.8474 8.99437L16.1699 8.64152C16.4066 8.38253 16.5275 8.03598 16.4943 7.67219C16.437 7.05043 15.8616 6.52083 15.1449 6.52083H10.7696H10.0785L10.2947 5.86441C10.5106 5.20881 10.8334 4.06933 10.8334 3.18751C10.8334 2.55916 10.5641 1.96028 10.1936 1.51417C10.0096 1.29269 9.81016 1.12065 9.62496 1.00718C9.43365 0.889971 9.28941 0.854187 9.20839 0.854187C8.77534 0.854187 8.43144 1.04636 8.29175 1.13804V3.46446V3.57429L8.24571 3.67401L6.20572 8.09332L6.16675 8.17773V15.1856C6.61815 15.3501 7.11785 15.4375 7.43757 15.4375H13.9394C14.4934 15.4375 14.9517 15.0643 15.0562 14.5923L15.8474 8.99437ZM15.8474 8.99437L16.1854 9.33239M15.8474 8.99437L16.1854 9.33239M16.1854 9.33239C16.3852 9.5322 16.5001 9.80212 16.5001 10.0938C16.5001 10.513 16.2607 10.8825 15.9005 11.0638L15.4545 11.2883L15.6784 11.7346C15.7523 11.8821 15.7917 12.0454 15.7917 12.2188C15.7917 12.6384 15.5519 13.0081 15.1914 13.1895L14.7453 13.4141M16.1854 9.33239L14.7453 13.4141M14.7453 13.4141L14.9694 13.8605M14.7453 13.4141L14.9694 13.8605M14.9694 13.8605C15.0793 14.0793 15.1132 14.3337 15.0562 14.5921L14.9694 13.8605Z" stroke="black"/>
</g>
<g clip-path="url(#clip1)">
<path d="M0.5 9.20832C0.5 8.50839 1.07089 7.9375 1.77082 7.9375H4.45832V16.012C4.28776 16.0979 4.09722 16.1458 3.89582 16.1458H1.77082C1.07089 16.1458 0.5 15.5749 0.5 14.875V9.20832Z" fill="#0EA2E3" stroke="#0EA2E3"/>
<path d="M15.8474 8.99437L16.1699 8.64152C16.4066 8.38253 16.5275 8.03598 16.4943 7.67219C16.437 7.05043 15.8616 6.52083 15.1449 6.52083H10.7696H10.0785L10.2947 5.86441C10.5106 5.20881 10.8334 4.06933 10.8334 3.18751C10.8334 2.55916 10.5641 1.96028 10.1936 1.51417C10.0096 1.29269 9.81016 1.12065 9.62496 1.00718C9.43365 0.889971 9.28941 0.854187 9.20839 0.854187C8.77534 0.854187 8.43144 1.04636 8.29175 1.13804V3.46446V3.57429L8.24571 3.67401L6.20572 8.09332L6.16675 8.17773V15.1856C6.61815 15.3501 7.11785 15.4375 7.43757 15.4375H13.9394C14.4934 15.4375 14.9517 15.0643 15.0562 14.5923L15.8474 8.99437ZM15.8474 8.99437L16.1854 9.33239M15.8474 8.99437L16.1854 9.33239M16.1854 9.33239C16.3852 9.5322 16.5001 9.80212 16.5001 10.0938C16.5001 10.513 16.2607 10.8825 15.9005 11.0638L15.4545 11.2883L15.6784 11.7346C15.7523 11.8821 15.7917 12.0454 15.7917 12.2188C15.7917 12.6384 15.5519 13.0081 15.1914 13.1895L14.7453 13.4141M16.1854 9.33239L14.7453 13.4141M14.7453 13.4141L14.9694 13.8605M14.7453 13.4141L14.9694 13.8605M14.9694 13.8605C15.0793 14.0793 15.1132 14.3337 15.0562 14.5921L14.9694 13.8605Z" fill="#0EA2E3" stroke="#0EA2E3"/>
</g>
<defs>
<clipPath id="clip0">
<rect width="17" height="17" fill="white"/>
</clipPath>
<clipPath id="clip1">
<rect width="17" height="17" fill="white"/>
</clipPath>
</defs>
</svg>
