<svg width="19" height="25" viewBox="0 0 19 25" fill="none" xmlns="http://www.w3.org/2000/svg">
<path fill-rule="evenodd" clip-rule="evenodd" d="M14 11.4375C13.6989 11.1458 13.3333 11 12.9032 11H11.3548V9.375C11.3548 9.27083 11.3172 9.18229 11.2419 9.10937C11.1666 9.03646 11.0752 9 10.9677 9H9.6774C9.56987 9 9.47847 9.03646 9.4032 9.10937C9.32794 9.18229 9.2903 9.27083 9.2903 9.375V11H5.16128V9.375C5.16128 9.27083 5.12364 9.18229 5.04838 9.10937C4.97311 9.03646 4.88171 9 4.77418 9H3.48386C3.37634 9 3.28494 9.03646 3.20967 9.10937C3.1344 9.18229 3.09677 9.27083 3.09677 9.375V11H1.54839C1.11828 11 0.752686 11.1458 0.451612 11.4375C0.150537 11.7292 0 12.0833 0 12.5V23.5C0 23.9166 0.150537 24.2708 0.451612 24.5625C0.752686 24.8541 1.11828 25 1.54839 25H12.9032C13.3333 25 13.6989 24.8541 14 24.5625C14.301 24.2708 14.4516 23.9166 14.4516 23.5V12.5C14.4516 12.0833 14.301 11.7292 14 11.4375ZM12.8387 23.4375C12.7957 23.4791 12.7527 23.5 12.7096 23.5H1.74193C1.69892 23.5 1.65591 23.4791 1.6129 23.4375C1.56989 23.3958 1.54838 23.3541 1.54838 23.3125V14H12.9032V23.3125C12.9032 23.3541 12.8817 23.3958 12.8387 23.4375Z" fill="#C41C27"/>
<path fill-rule="evenodd" clip-rule="evenodd" d="M13 12C16.3137 12 19 9.31371 19 6C19 2.68629 16.3137 0 13 0C9.68629 0 7 2.68629 7 6C7 9.31371 9.68629 12 13 12Z" fill="#84A8EC"/>
<path fill-rule="evenodd" clip-rule="evenodd" d="M13 10C15.2091 10 17 8.20914 17 6C17 3.79086 15.2091 2 13 2C10.7909 2 9 3.79086 9 6C9 8.20914 10.7909 10 13 10Z" fill="#002B7A"/>
</svg>
