<svg width="20" height="20" viewBox="0 0 20 20" fill="none" xmlns="http://www.w3.org/2000/svg">
<path d="M10 6.4L13.4236 8.8876L10 6.4ZM10 6.4L6.5764 8.8876L10 6.4ZM10 6.4V3.7V6.4ZM13.4236 8.8876L12.1159 12.9124L13.4236 8.8876ZM13.4236 8.8876L15.85 7.75L13.4236 8.8876ZM12.1159 12.9124H7.885H12.1159ZM12.1168 12.9124L13.6 14.95L12.1168 12.9124ZM7.8841 12.9124L6.5764 8.8876L7.8841 12.9124ZM7.8841 12.9124L6.4 14.95L7.8841 12.9124ZM6.5764 8.8876L4.15 7.75L6.5764 8.8876ZM4.15 7.75L1.045 10.9L4.15 7.75ZM4.15 7.75L3.25 4.0465L4.15 7.75ZM15.85 7.75L18.955 10.9L15.85 7.75ZM15.85 7.75L16.75 4.0465L15.85 7.75ZM10 3.7L6.9616 1.5256L10 3.7ZM10 3.7L13.0384 1.5256L10 3.7ZM6.4 14.95L2.2042 14.5L6.4 14.95ZM6.4 14.95L8.65 18.8992L6.4 14.95ZM13.6 14.95L17.7958 14.5L13.6 14.95ZM13.6 14.95L11.35 18.8992L13.6 14.95ZM19 10C19 14.9707 14.9707 19 10 19C5.0293 19 1 14.9707 1 10C1 5.0293 5.0293 1 10 1C14.9707 1 19 5.0293 19 10Z" stroke="#969696" stroke-width="1.5" stroke-linecap="round" stroke-linejoin="round"/>
</svg>
