<svg width="65" height="62" viewBox="0 0 65 62" fill="none" xmlns="http://www.w3.org/2000/svg">
<rect x="0.5" y="0.5" width="64" height="61" rx="17.5" fill="#C41C27" stroke="#C41C27"/>
<path d="M36 39.999H30V31.599C30 31.4399 30.0632 31.2873 30.1757 31.1748C30.2883 31.0622 30.4409 30.999 30.6 30.999H35.4C35.5591 30.999 35.7117 31.0622 35.8243 31.1748C35.9368 31.2873 36 31.4399 36 31.599V39.999V39.999Z" stroke="white" stroke-width="1.5" stroke-linecap="round" stroke-linejoin="round"/>
<path d="M41.4 39.999H36V37.099C36 36.9399 36.0632 36.7873 36.1757 36.6748C36.2883 36.5622 36.4409 36.499 36.6 36.499H41.4C41.5591 36.499 41.7117 36.5622 41.8243 36.6748C41.9368 36.7873 42 36.9399 42 37.099V39.399C42 39.5582 41.9368 39.7108 41.8243 39.8233C41.7117 39.9358 41.5591 39.999 41.4 39.999V39.999Z" stroke="white" stroke-width="1.5" stroke-linecap="round" stroke-linejoin="round"/>
<path d="M30 39.999V35.099C30 34.9399 29.9368 34.7873 29.8243 34.6748C29.7117 34.5622 29.5591 34.499 29.4 34.499H24.6C24.4409 34.499 24.2883 34.5622 24.1757 34.6748C24.0632 34.7873 24 34.9399 24 35.099V39.399C24 39.5582 24.0632 39.7108 24.1757 39.8233C24.2883 39.9358 24.4409 39.999 24.6 39.999H30V39.999Z" stroke="white" stroke-width="1.5" stroke-linecap="round" stroke-linejoin="round"/>
<path d="M31.8061 24.112L32.7151 22.185C32.7396 22.13 32.7796 22.0832 32.8302 22.0503C32.8808 22.0175 32.9398 22 33.0001 22C33.0604 22 33.1194 22.0175 33.17 22.0503C33.2206 22.0832 33.2606 22.13 33.2851 22.185L34.1951 24.112L36.2271 24.423C36.4881 24.463 36.5921 24.799 36.4031 24.991L34.9331 26.491L35.2801 28.609C35.3241 28.881 35.0521 29.089 34.8181 28.96L33.0001 27.96L31.1821 28.96C30.9491 29.088 30.6761 28.881 30.7201 28.609L31.0671 26.491L29.5971 24.991C29.4071 24.799 29.5121 24.463 29.7721 24.423L31.8061 24.113V24.112Z" stroke="white" stroke-width="1.5" stroke-linecap="round" stroke-linejoin="round"/>
</svg>
