<svg width="22" height="14" viewBox="0 0 22 14" fill="none" xmlns="http://www.w3.org/2000/svg">
<path fill-rule="evenodd" clip-rule="evenodd" d="M8.77213 6.53123C9.34808 6.84373 9.96833 6.99998 10.6329 6.99998C11.2974 6.99998 11.9177 6.84373 12.4936 6.53123C13.0696 6.21874 13.5237 5.79165 13.856 5.24999C14.1883 4.70832 14.3544 4.12499 14.3544 3.5C14.3544 2.87499 14.1883 2.29166 13.856 1.75C13.5237 1.20833 13.0696 0.781248 12.4936 0.468749C11.9177 0.15625 11.2974 0 10.6329 0C9.96833 0 9.34808 0.15625 8.77213 0.468749C8.19618 0.781248 7.74207 1.20833 7.40979 1.75C7.07752 2.29166 6.91138 2.87499 6.91138 3.5C6.91138 4.12499 7.07752 4.70832 7.40979 5.24999C7.74207 5.79165 8.19618 6.21874 8.77213 6.53123ZM3.18987 5.99999C2.45885 5.99999 1.83307 5.7552 1.3125 5.26561C0.791928 4.77603 0.531644 4.18749 0.531644 3.5C0.531644 2.81249 0.791928 2.22395 1.3125 1.73437C1.83307 1.24479 2.45885 0.999998 3.18987 0.999998C3.92088 0.999998 4.54667 1.24479 5.06723 1.73437C5.5878 2.22395 5.84809 2.81249 5.84809 3.5C5.84809 4.18749 5.5878 4.77603 5.06723 5.26561C4.54667 5.7552 3.92088 5.99999 3.18987 5.99999ZM16.1985 5.26561C16.7191 5.7552 17.3449 5.99999 18.0759 5.99999C18.8069 5.99999 19.4327 5.7552 19.9533 5.26561C20.4738 4.77603 20.7341 4.18749 20.7341 3.5C20.7341 2.81249 20.4738 2.22395 19.9533 1.73437C19.4327 1.24479 18.8069 0.999998 18.0759 0.999998C17.3449 0.999998 16.7191 1.24479 16.1985 1.73437C15.678 2.22395 15.4177 2.81249 15.4177 3.5C15.4177 4.18749 15.678 4.77603 16.1985 5.26561ZM17.3283 2.79687C17.5387 2.59895 17.7879 2.49999 18.0759 2.49999C18.3639 2.49999 18.6131 2.59895 18.8235 2.79687C19.034 2.99478 19.1392 3.22916 19.1392 3.49999C19.1392 3.77082 19.034 4.0052 18.8235 4.20311C18.6131 4.40103 18.3639 4.49999 18.0759 4.49999C17.7879 4.49999 17.5387 4.40103 17.3283 4.20311C17.1178 4.0052 17.0126 3.77082 17.0126 3.49999C17.0126 3.22916 17.1178 2.99478 17.3283 2.79687ZM2.44224 2.79687C2.65268 2.59895 2.90189 2.49999 3.18987 2.49999C3.47784 2.49999 3.72705 2.59895 3.93749 2.79687C4.14793 2.99478 4.25316 3.22916 4.25316 3.49999C4.25316 3.77082 4.14793 4.0052 3.93749 4.20311C3.72705 4.40103 3.47784 4.49999 3.18987 4.49999C2.90189 4.49999 2.65268 4.40103 2.44224 4.20311C2.2318 4.0052 2.12658 3.77082 2.12658 3.49999C2.12658 3.22916 2.2318 2.99478 2.44224 2.79687ZM16.3481 9.09373C16.7911 9.69789 17.0126 10.3646 17.0126 11.0937V12.5C17.0126 12.9166 16.8576 13.2708 16.5474 13.5625C16.2373 13.8541 15.8607 14 15.4177 14H5.84809C5.40505 14 5.02847 13.8541 4.71834 13.5625C4.40822 13.2708 4.25316 12.9166 4.25316 12.5V11.0937C4.25316 10.3646 4.47467 9.69269 4.91771 9.0781C5.36075 8.46352 5.97546 8.03644 6.76185 7.79686C7.54824 7.55727 8.34017 7.55206 9.13764 7.78123C9.62498 7.92706 10.1179 7.99998 10.6163 7.99998C11.015 7.99998 11.4173 7.95331 11.8231 7.85998L12.1281 7.78123C12.9256 7.55206 13.7175 7.55727 14.5039 7.79686C15.2903 8.03644 15.905 8.46873 16.3481 9.09373ZM15.4177 11.0937V12.5H5.84809V11.0937C5.84809 10.5312 6.05853 10.0469 6.47942 9.6406C6.9003 9.23435 7.40979 9.02081 8.00789 8.99998C8.87182 9.33331 9.74681 9.49998 10.6329 9.49998C11.519 9.49998 12.394 9.33331 13.2579 8.99998C13.856 9.02081 14.3655 9.23435 14.7864 9.6406C15.2072 10.0469 15.4177 10.5312 15.4177 11.0937ZM18.4746 6.99998C19.25 6.99998 19.909 7.25519 20.4517 7.76561C20.9944 8.27602 21.2658 8.89581 21.2658 9.62498C21.2658 9.83331 21.1882 10.0104 21.0332 10.1562C20.8781 10.3021 20.6898 10.375 20.4683 10.375C20.2468 10.375 20.0585 10.3021 19.9034 10.1562C19.7484 10.0104 19.6708 9.83331 19.6708 9.62498C19.6708 9.31248 19.5545 9.04685 19.3219 8.8281C19.0894 8.60935 18.8069 8.49998 18.4746 8.49998H17.6772C17.5664 8.49998 17.4335 8.52081 17.2784 8.56248C16.9683 8.14581 16.5807 7.77081 16.1155 7.43748C16.5807 7.14582 17.1012 6.99998 17.6772 6.99998H18.4746ZM10.6329 1.5C10.0569 1.5 9.55852 1.69791 9.13764 2.09375C8.71675 2.48958 8.50631 2.95833 8.50631 3.5C8.50631 4.04166 8.71675 4.51041 9.13764 4.90624C9.55852 5.30207 10.0569 5.5 10.6329 5.5C11.2088 5.5 11.7073 5.30207 12.1281 4.90624C12.549 4.51041 12.7595 4.04166 12.7595 3.5C12.7595 2.95833 12.549 2.48958 12.1281 2.09375C11.7073 1.69791 11.2088 1.5 10.6329 1.5ZM3.98733 8.59373C4.29746 8.15623 4.68512 7.77081 5.1503 7.43748C4.68512 7.14582 4.16455 6.99998 3.5886 6.99998H2.79113C2.01582 6.99998 1.3568 7.25519 0.81408 7.76561C0.27136 8.27602 0 8.89581 0 9.62498C0 9.83331 0.0775313 10.0104 0.232594 10.1562C0.387657 10.3021 0.575948 10.375 0.797467 10.375C1.01899 10.375 1.20728 10.3021 1.36234 10.1562C1.5174 10.0104 1.59494 9.83331 1.59494 9.62498C1.59494 9.31248 1.71123 9.04685 1.94382 8.8281C2.17642 8.60935 2.45886 8.49998 2.79113 8.49998H3.5886C3.72152 8.49998 3.85442 8.53123 3.98733 8.59373Z" fill="#C41C27"/>
</svg>
