<svg width="14" height="16" viewBox="0 0 14 16" fill="none" xmlns="http://www.w3.org/2000/svg">
<path d="M11.5625 12.2969L10.7188 15.1562C10.6875 15.3958 10.5651 15.5964 10.3516 15.7578C10.138 15.9193 9.90104 16 9.64062 16H4.35938C4.09896 16 3.86198 15.9193 3.64844 15.7578C3.4349 15.5964 3.3125 15.3958 3.28125 15.1562L2.4375 12.2969C1.67708 11.6406 1.08073 10.8542 0.648438 9.9375C0.216146 9.02083 0 8.04167 0 7C0 6.05208 0.184896 5.14583 0.554688 4.28125C0.924479 3.41667 1.42188 2.67188 2.04688 2.04688C2.67188 1.42188 3.41667 0.924479 4.28125 0.554688C5.14583 0.184896 6.05208 0 7 0C7.94792 0 8.85417 0.184896 9.71875 0.554688C10.5833 0.924479 11.3281 1.42188 11.9531 2.04688C12.5781 2.67188 13.0755 3.41667 13.4453 4.28125C13.8151 5.14583 14 6.05208 14 7C14 8.04167 13.7839 9.02083 13.3516 9.9375C12.9193 10.8542 12.3229 11.6406 11.5625 12.2969ZM4.5 10H9.5C9.63542 10 9.7526 9.95052 9.85156 9.85156C9.95052 9.7526 10 9.63542 10 9.5C10 9.36458 9.95052 9.2474 9.85156 9.14844C9.7526 9.04948 9.63542 9 9.5 9H4.5C4.36458 9 4.2474 9.04948 4.14844 9.14844C4.04948 9.2474 4 9.36458 4 9.5C4 9.63542 4.04948 9.7526 4.14844 9.85156C4.2474 9.95052 4.36458 10 4.5 10ZM7 1C5.51042 1 4.19792 1.47656 3.0625 2.42969C1.92708 3.38281 1.23958 4.57292 1 6C2.58333 6.58333 4.33854 6.91146 6.26562 6.98438L9.09375 4.14062C9.26042 3.98438 9.44792 3.94792 9.65625 4.03125C8.89583 3.34375 8.01042 3 7 3C6.14583 3 5.3776 3.24219 4.69531 3.72656C4.01302 4.21094 3.53125 4.84375 3.25 5.625C2.88542 5.55208 2.55729 5.47396 2.26562 5.39062C2.60938 4.39062 3.21354 3.57552 4.07812 2.94531C4.94271 2.3151 5.91667 2 7 2C8.08333 2 9.05729 2.3151 9.92188 2.94531C10.7865 3.57552 11.3906 4.39062 11.7344 5.39062C11.4427 5.47396 11.1146 5.55208 10.75 5.625C10.5833 5.15625 10.3177 4.72396 9.95312 4.32812C10.0365 4.53646 10 4.72396 9.84375 4.89062L7.73438 6.98438C9.66146 6.91146 11.4167 6.58333 13 6C12.7708 4.57292 12.0859 3.38281 10.9453 2.42969C9.80469 1.47656 8.48958 1 7 1Z" fill="#C41C27"/>
</svg>
