<svg width="65" height="62" viewBox="0 0 65 62" fill="none" xmlns="http://www.w3.org/2000/svg">
<rect x="0.5" y="0.5" width="64" height="61" rx="17.5" stroke="#C41C27"/>
<path d="M40.5 23H37.5V21.5C37.5 21.3674 37.4473 21.2402 37.3536 21.1464C37.2598 21.0527 37.1326 21 37 21C36.8674 21 36.7402 21.0527 36.6464 21.1464C36.5527 21.2402 36.5 21.3674 36.5 21.5V23H29.5V21.5C29.5 21.3674 29.4473 21.2402 29.3536 21.1464C29.2598 21.0527 29.1326 21 29 21C28.8674 21 28.7402 21.0527 28.6464 21.1464C28.5527 21.2402 28.5 21.3674 28.5 21.5V23H25.5C24.8372 23.0008 24.2018 23.2644 23.7331 23.7331C23.2644 24.2018 23.0008 24.8372 23 25.5V38.5C23.0008 39.1628 23.2644 39.7982 23.7331 40.2669C24.2018 40.7356 24.8372 40.9992 25.5 41H40.5C41.1629 40.9995 41.7985 40.7359 42.2672 40.2672C42.7359 39.7985 42.9995 39.1629 43 38.5V25.5C42.9995 24.8371 42.7359 24.2015 42.2672 23.7328C41.7985 23.2641 41.1629 23.0005 40.5 23V23ZM42 38.5C42 39.328 41.328 40 40.5 40H25.5C24.67 40 24 39.328 24 38.5V30H42V38.5ZM42 29H24V25.5C24 24.672 24.67 24 25.5 24H28.5V25.5C28.5 25.6326 28.5527 25.7598 28.6464 25.8536C28.7402 25.9473 28.8674 26 29 26C29.1326 26 29.2598 25.9473 29.3536 25.8536C29.4473 25.7598 29.5 25.6326 29.5 25.5V24H36.5V25.5C36.5 25.6326 36.5527 25.7598 36.6464 25.8536C36.7402 25.9473 36.8674 26 37 26C37.1326 26 37.2598 25.9473 37.3536 25.8536C37.4473 25.7598 37.5 25.6326 37.5 25.5V24H40.5C41.328 24 42 24.672 42 25.5V29Z" fill="#C41C27"/>
</svg>
