<svg width="65" height="62" viewBox="0 0 65 62" fill="none" xmlns="http://www.w3.org/2000/svg">
<path d="M35.754 29C36.72 29 37.504 29.784 37.504 30.75V35.499C37.504 36.6927 37.0298 37.8376 36.1857 38.6817C35.3416 39.5258 34.1967 40 33.003 40C31.8093 40 30.6644 39.5258 29.8203 38.6817C28.9762 37.8376 28.502 36.6927 28.502 35.499V30.75C28.502 29.784 29.285 29 30.252 29H35.754V29ZM35.754 30.5H30.252C30.1857 30.5 30.1221 30.5263 30.0752 30.5732C30.0283 30.6201 30.002 30.6837 30.002 30.75V35.499C30.002 36.2949 30.3182 37.0582 30.881 37.621C31.4438 38.1838 32.2071 38.5 33.003 38.5C33.7989 38.5 34.5622 38.1838 35.125 37.621C35.6878 37.0582 36.004 36.2949 36.004 35.499V30.75C36.004 30.6837 35.9777 30.6201 35.9308 30.5732C35.8839 30.5263 35.8203 30.5 35.754 30.5V30.5ZM24.75 29H28.131C27.7782 29.4261 27.5627 29.949 27.513 30.5H24.75C24.6837 30.5 24.6201 30.5263 24.5732 30.5732C24.5263 30.6201 24.5 30.6837 24.5 30.75V33.999C24.4999 34.3769 24.5855 34.7499 24.7503 35.0899C24.915 35.43 25.1547 35.7283 25.4513 35.9625C25.7479 36.1966 26.0937 36.3605 26.4628 36.4418C26.8318 36.5231 27.2145 36.5198 27.582 36.432C27.667 36.936 27.822 37.417 28.035 37.864C27.4423 38.0226 26.821 38.0427 26.2193 37.9228C25.6176 37.8029 25.0514 37.5463 24.5647 37.1727C24.078 36.7991 23.6838 36.3185 23.4125 35.7682C23.1411 35.2179 23 34.6126 23 33.999V30.75C23 29.784 23.784 29 24.75 29ZM37.875 29H41.25C42.216 29 43 29.784 43 30.75V34C43.0001 34.6132 42.8593 35.2182 42.5884 35.7682C42.3175 36.3183 41.9237 36.7987 41.4376 37.1724C40.9514 37.546 40.3858 37.8029 39.7846 37.9232C39.1833 38.0435 38.5625 38.0239 37.97 37.866C38.184 37.418 38.339 36.937 38.425 36.433C38.7921 36.5198 39.174 36.5223 39.5423 36.4405C39.9105 36.3587 40.2554 36.1946 40.5512 35.9606C40.847 35.7265 41.086 35.4286 41.2503 35.089C41.4147 34.7495 41.5 34.3772 41.5 34V30.75C41.5 30.6837 41.4737 30.6201 41.4268 30.5732C41.3799 30.5263 41.3163 30.5 41.25 30.5H38.493C38.4433 29.949 38.2278 29.4261 37.875 29ZM33 22C33.7956 22 34.5587 22.3161 35.1213 22.8787C35.6839 23.4413 36 24.2044 36 25C36 25.7956 35.6839 26.5587 35.1213 27.1213C34.5587 27.6839 33.7956 28 33 28C32.2044 28 31.4413 27.6839 30.8787 27.1213C30.3161 26.5587 30 25.7956 30 25C30 24.2044 30.3161 23.4413 30.8787 22.8787C31.4413 22.3161 32.2044 22 33 22V22ZM39.5 23C40.163 23 40.7989 23.2634 41.2678 23.7322C41.7366 24.2011 42 24.837 42 25.5C42 26.163 41.7366 26.7989 41.2678 27.2678C40.7989 27.7366 40.163 28 39.5 28C38.837 28 38.2011 27.7366 37.7322 27.2678C37.2634 26.7989 37 26.163 37 25.5C37 24.837 37.2634 24.2011 37.7322 23.7322C38.2011 23.2634 38.837 23 39.5 23ZM26.5 23C27.163 23 27.7989 23.2634 28.2678 23.7322C28.7366 24.2011 29 24.837 29 25.5C29 26.163 28.7366 26.7989 28.2678 27.2678C27.7989 27.7366 27.163 28 26.5 28C25.837 28 25.2011 27.7366 24.7322 27.2678C24.2634 26.7989 24 26.163 24 25.5C24 24.837 24.2634 24.2011 24.7322 23.7322C25.2011 23.2634 25.837 23 26.5 23V23ZM33 23.5C32.6022 23.5 32.2206 23.658 31.9393 23.9393C31.658 24.2206 31.5 24.6022 31.5 25C31.5 25.3978 31.658 25.7794 31.9393 26.0607C32.2206 26.342 32.6022 26.5 33 26.5C33.3978 26.5 33.7794 26.342 34.0607 26.0607C34.342 25.7794 34.5 25.3978 34.5 25C34.5 24.6022 34.342 24.2206 34.0607 23.9393C33.7794 23.658 33.3978 23.5 33 23.5ZM39.5 24.5C39.2348 24.5 38.9804 24.6054 38.7929 24.7929C38.6054 24.9804 38.5 25.2348 38.5 25.5C38.5 25.7652 38.6054 26.0196 38.7929 26.2071C38.9804 26.3946 39.2348 26.5 39.5 26.5C39.7652 26.5 40.0196 26.3946 40.2071 26.2071C40.3946 26.0196 40.5 25.7652 40.5 25.5C40.5 25.2348 40.3946 24.9804 40.2071 24.7929C40.0196 24.6054 39.7652 24.5 39.5 24.5ZM26.5 24.5C26.2348 24.5 25.9804 24.6054 25.7929 24.7929C25.6054 24.9804 25.5 25.2348 25.5 25.5C25.5 25.7652 25.6054 26.0196 25.7929 26.2071C25.9804 26.3946 26.2348 26.5 26.5 26.5C26.7652 26.5 27.0196 26.3946 27.2071 26.2071C27.3946 26.0196 27.5 25.7652 27.5 25.5C27.5 25.2348 27.3946 24.9804 27.2071 24.7929C27.0196 24.6054 26.7652 24.5 26.5 24.5Z" fill="#C41C27"/>
<rect x="0.5" y="0.5" width="64" height="61" rx="17.5" stroke="#C41C27"/>
</svg>
